<svg width="13" height="8" viewBox="0 0 13 8" fill="none" xmlns="http://www.w3.org/2000/svg">
<path d="M5.92297 7.14L1.1203 1.658C0.553516 1.013 1.01416 3.67706e-07 1.87435 3.67706e-07H11.4797C11.6722 -0.000164459 11.8607 0.0550878 12.0226 0.159141C12.1844 0.263194 12.3128 0.411637 12.3924 0.586693C12.472 0.761749 12.4993 0.955998 12.4712 1.14618C12.443 1.33636 12.3606 1.51441 12.2337 1.659L7.43107 7.139C7.33708 7.24641 7.22116 7.3325 7.0911 7.39148C6.96105 7.45046 6.81986 7.48098 6.67702 7.48098C6.53418 7.48098 6.39299 7.45046 6.26294 7.39148C6.13288 7.3325 6.01697 7.24641 5.92297 7.139V7.14Z" fill="black"/>
</svg>
